<?xml version="1.0" encoding="utf-8"?>
<!-- Generator: Adobe Illustrator 16.0.0, SVG Export Plug-In . SVG Version: 6.00 Build 0)  -->
<!DOCTYPE svg PUBLIC "-//W3C//DTD SVG 1.1//EN" "http://www.w3.org/Graphics/SVG/1.1/DTD/svg11.dtd">
<svg version="1.1" id="Calque_1" xmlns="http://www.w3.org/2000/svg" xmlns:xlink="http://www.w3.org/1999/xlink" x="0px" y="0px"
	 width="137.118px" height="47.712px" viewBox="0 0 137.118 47.712" enable-background="new 0 0 137.118 47.712"
	 xml:space="preserve">
<g>
	<path fill="#262626" d="M21.622,21.493c0-0.399-0.35-0.75-0.75-0.75h-1.95c1.15-1.899,3.25-3.1,5.55-3.1c1.8,0,3.5,0.75,4.75,2.05
		c0.25,0.3,0.75,0.3,1.05,0.05c0.3-0.3,0.3-0.75,0.05-1.05c-1.5-1.6-3.649-2.5-5.85-2.5c-2.65-0.05-5,1.2-6.5,3.3v-1.6
		c0-0.4-0.35-0.75-0.75-0.75s-0.75,0.35-0.75,0.75v3.6c0,0.4,0.35,0.75,0.75,0.75h3.65C21.272,22.243,21.622,21.943,21.622,21.493z
		 M31.722,26.043h-3.6c-0.4,0-0.75,0.35-0.75,0.75s0.35,0.75,0.75,0.75h1.899c-1.149,1.9-3.25,3.1-5.55,3.1
		c-1.8,0-3.5-0.75-4.75-2.049c-0.25-0.301-0.75-0.301-1.05-0.051c-0.3,0.301-0.3,0.75-0.05,1.051c1.5,1.6,3.65,2.5,5.85,2.5
		c2.65,0,5-1.25,6.5-3.352v1.602c0,0.398,0.35,0.75,0.75,0.75s0.75-0.352,0.75-0.75v-3.602
		C32.472,26.344,32.123,26.043,31.722,26.043z"/>
</g>
<g>
	<path fill="#262626" d="M61.891,32.132c-0.2,0-0.399-0.1-0.55-0.2l-5.8-5.85l-5.8,5.85c-0.2,0.2-0.55,0.3-0.8,0.15
		c-0.3-0.101-0.45-0.4-0.45-0.7v-14.5c-0.05-0.4,0.3-0.75,0.7-0.75h12.7c0.4,0,0.75,0.35,0.75,0.75v14.5c0,0.3-0.2,0.6-0.45,0.7
		C62.091,32.132,61.992,32.132,61.891,32.132z M49.941,17.632v11.95l4.7-4.7c0.45-0.45,1.3-0.45,1.75,0l4.7,4.7v-11.95H49.941z"/>
</g>
<g>
	<path fill="#262626" d="M84.811,15.843c-4.4,0-8,3.55-8,8c0,2.4,1.05,4.55,2.75,6l0.15,0.15c1.35,1.149,3.15,1.85,5.1,1.85
		s3.75-0.7,5.1-1.85l0.15-0.15c1.7-1.5,2.75-3.6,2.75-6C92.811,19.393,89.211,15.843,84.811,15.843z M84.811,30.343
		c-1.4,0-2.65-0.45-3.75-1.2c0.25-0.45,0.45-0.649,0.7-0.899c0.35-0.25,0.75-0.4,1.2-0.4h3.6c0.45,0,0.85,0.15,1.2,0.4
		c0.25,0.199,0.45,0.399,0.7,0.899C87.461,29.893,86.211,30.343,84.811,30.343z M89.66,28.143c-0.25-0.45-0.55-0.75-0.949-1.05
		c-0.601-0.45-1.351-0.7-2.101-0.7h-3.6c-0.75,0-1.5,0.25-2.1,0.7c-0.4,0.3-0.7,0.6-0.95,1.05c-1.05-1.149-1.65-2.649-1.65-4.3
		c0-3.6,2.9-6.5,6.5-6.5c3.6,0,6.5,2.9,6.5,6.5C91.311,25.493,90.711,26.993,89.66,28.143z M84.811,18.692
		c-1.95,0-3.5,1.551-3.5,3.5c0,1.95,1.55,3.5,3.5,3.5s3.5-1.55,3.5-3.5C88.311,20.243,86.761,18.692,84.811,18.692z M84.811,24.192
		c-1.1,0-2-0.899-2-2c0-1.1,0.9-2,2-2c1.1,0,2,0.9,2,2C86.811,23.293,85.91,24.192,84.811,24.192z"/>
</g>
<g>
	<path fill="#262626" d="M120.325,22.893l-0.699-0.351c-0.051,0-0.1-0.05-0.1-0.1v-0.1c-0.15-0.551-0.35-1.051-0.65-1.551v-0.05
		l-0.1-0.05v-0.15l0.25-0.75c0.1-0.25,0-0.55-0.201-0.75l-0.949-0.949c-0.199-0.2-0.5-0.25-0.75-0.2l-0.75,0.25h-0.15l-0.049-0.05
		h-0.051c-0.5-0.25-1-0.5-1.55-0.65h-0.1c-0.05,0-0.05-0.05-0.1-0.1l-0.351-0.7c-0.1-0.25-0.35-0.45-0.6-0.45h-1.35
		c-0.25,0-0.5,0.15-0.65,0.4l-0.35,0.699c0,0.051-0.05,0.101-0.1,0.101h-0.1c-0.55,0.149-1.05,0.35-1.55,0.649h-0.05l-0.05,0.101
		h-0.15l-0.75-0.25c-0.25-0.101-0.55,0-0.75,0.2l-0.95,0.949c-0.2,0.2-0.25,0.5-0.2,0.75l0.25,0.75v0.25c-0.25,0.5-0.5,1-0.65,1.551
		v0.1c0,0.05-0.05,0.05-0.1,0.1l-0.7,0.351c-0.3,0.1-0.5,0.35-0.5,0.6v1.351c0,0.25,0.15,0.5,0.4,0.649l0.7,0.351
		c0.05,0,0.1,0.05,0.1,0.1v0.1c0.15,0.551,0.35,1.051,0.65,1.551v0.05l0.1,0.05v0.15l-0.25,0.75c-0.1,0.25,0,0.55,0.2,0.75
		l0.95,0.949c0.15,0.15,0.3,0.2,0.5,0.2c0.1,0,0.15,0,0.25-0.05l0.75-0.25h0.15l0.05,0.05h0.05c0.5,0.25,1,0.5,1.55,0.65h0.1
		c0.05,0,0.05,0.05,0.1,0.1l0.35,0.7c0.1,0.25,0.35,0.4,0.65,0.4h1.35c0.25,0,0.5-0.15,0.649-0.4l0.351-0.7c0-0.05,0.05-0.1,0.1-0.1
		h0.101c0.55-0.15,1.05-0.351,1.55-0.65h0.049l0.051-0.05h0.15l0.75,0.25c0.049,0,0.148,0.05,0.25,0.05c0.199,0,0.35-0.05,0.5-0.2
		l0.949-0.949c0.199-0.2,0.25-0.5,0.199-0.75l-0.25-0.75v-0.15l0.051-0.05v-0.05c0.25-0.5,0.5-1,0.65-1.551v-0.1
		c0-0.05,0.049-0.05,0.1-0.1l0.699-0.351c0.25-0.1,0.4-0.35,0.4-0.649v-1.351C120.725,23.243,120.526,22.993,120.325,22.893z
		 M112.726,29.743c-3.05,0-5.55-2.5-5.55-5.55s2.5-5.55,5.55-5.55s5.55,2.5,5.55,5.55S115.775,29.743,112.726,29.743z"/>
</g>
</svg>
